<svg xmlns="http://www.w3.org/2000/svg" xmlns:xlink="http://www.w3.org/1999/xlink" width="100" zoomAndPan="magnify" viewBox="0 0 75 30.000001" height="40" preserveAspectRatio="xMidYMid meet" version="1.0"><defs><g/><clipPath id="c36ba9036a"><path d="M 5.226562 5.5625 L 29.179688 5.5625 L 29.179688 23.707031 L 5.226562 23.707031 Z M 5.226562 5.5625 " clip-rule="nonzero"/></clipPath></defs><g fill="#ffffff" fill-opacity="1"><g transform="translate(31.978745, 17.251048)"><g><path d="M 2.59375 -4.546875 C 2.914062 -4.546875 3.207031 -4.488281 3.46875 -4.375 C 3.738281 -4.269531 3.972656 -4.113281 4.171875 -3.90625 C 4.367188 -3.707031 4.519531 -3.46875 4.625 -3.1875 C 4.726562 -2.90625 4.78125 -2.585938 4.78125 -2.234375 C 4.78125 -2.160156 4.765625 -2.109375 4.734375 -2.078125 C 4.703125 -2.046875 4.65625 -2.03125 4.59375 -2.03125 L 1.59375 -2.03125 C 1.601562 -1.800781 1.660156 -1.609375 1.765625 -1.453125 C 1.878906 -1.296875 2.015625 -1.179688 2.171875 -1.109375 C 2.335938 -1.035156 2.515625 -1 2.703125 -1 C 2.890625 -1 3.078125 -1.03125 3.265625 -1.09375 C 3.453125 -1.164062 3.632812 -1.269531 3.8125 -1.40625 C 3.882812 -1.46875 3.957031 -1.460938 4.03125 -1.390625 L 4.5 -0.796875 C 4.582031 -0.710938 4.570312 -0.628906 4.46875 -0.546875 C 4.195312 -0.335938 3.90625 -0.175781 3.59375 -0.0625 C 3.28125 0.0390625 2.972656 0.09375 2.671875 0.09375 C 2.347656 0.09375 2.046875 0.0390625 1.765625 -0.0625 C 1.492188 -0.164062 1.253906 -0.316406 1.046875 -0.515625 C 0.835938 -0.722656 0.671875 -0.96875 0.546875 -1.25 C 0.429688 -1.539062 0.375 -1.863281 0.375 -2.21875 C 0.375 -2.570312 0.425781 -2.890625 0.53125 -3.171875 C 0.644531 -3.460938 0.800781 -3.707031 1 -3.90625 C 1.195312 -4.113281 1.429688 -4.269531 1.703125 -4.375 C 1.984375 -4.488281 2.28125 -4.546875 2.59375 -4.546875 Z M 2.625 -3.546875 C 2.507812 -3.546875 2.382812 -3.519531 2.25 -3.46875 C 2.125 -3.425781 2.007812 -3.351562 1.90625 -3.25 C 1.800781 -3.15625 1.722656 -3.023438 1.671875 -2.859375 L 3.484375 -2.859375 C 3.453125 -3.023438 3.390625 -3.15625 3.296875 -3.25 C 3.210938 -3.351562 3.109375 -3.425781 2.984375 -3.46875 C 2.867188 -3.519531 2.75 -3.546875 2.625 -3.546875 Z M 2.625 -3.546875 "/></g></g></g><g fill="#ffffff" fill-opacity="1"><g transform="translate(38.591776, 17.251048)"><g><path d="M 1.921875 0.09375 C 1.710938 0.09375 1.492188 0.078125 1.265625 0.046875 C 1.046875 0.015625 0.804688 -0.03125 0.546875 -0.09375 C 0.492188 -0.101562 0.457031 -0.128906 0.4375 -0.171875 C 0.414062 -0.210938 0.414062 -0.253906 0.4375 -0.296875 L 0.671875 -0.984375 C 0.703125 -1.078125 0.769531 -1.109375 0.875 -1.078125 C 1.0625 -1.023438 1.25 -0.976562 1.4375 -0.9375 C 1.625 -0.90625 1.789062 -0.890625 1.9375 -0.890625 C 2.082031 -0.890625 2.203125 -0.910156 2.296875 -0.953125 C 2.398438 -1.003906 2.453125 -1.09375 2.453125 -1.21875 C 2.453125 -1.28125 2.414062 -1.335938 2.34375 -1.390625 C 2.28125 -1.441406 2.195312 -1.488281 2.09375 -1.53125 C 1.988281 -1.582031 1.867188 -1.632812 1.734375 -1.6875 C 1.609375 -1.75 1.476562 -1.8125 1.34375 -1.875 C 1.175781 -1.96875 1.019531 -2.066406 0.875 -2.171875 C 0.738281 -2.285156 0.625 -2.414062 0.53125 -2.5625 C 0.4375 -2.71875 0.390625 -2.898438 0.390625 -3.109375 C 0.390625 -3.367188 0.4375 -3.585938 0.53125 -3.765625 C 0.625 -3.953125 0.75 -4.097656 0.90625 -4.203125 C 1.070312 -4.316406 1.253906 -4.398438 1.453125 -4.453125 C 1.648438 -4.515625 1.859375 -4.546875 2.078125 -4.546875 C 2.253906 -4.546875 2.453125 -4.523438 2.671875 -4.484375 C 2.898438 -4.453125 3.125 -4.398438 3.34375 -4.328125 C 3.382812 -4.316406 3.414062 -4.296875 3.4375 -4.265625 C 3.457031 -4.234375 3.457031 -4.191406 3.4375 -4.140625 L 3.234375 -3.4375 C 3.222656 -3.382812 3.195312 -3.347656 3.15625 -3.328125 C 3.125 -3.304688 3.082031 -3.304688 3.03125 -3.328125 C 2.851562 -3.390625 2.679688 -3.4375 2.515625 -3.46875 C 2.347656 -3.507812 2.195312 -3.53125 2.0625 -3.53125 C 1.9375 -3.53125 1.835938 -3.507812 1.765625 -3.46875 C 1.691406 -3.4375 1.65625 -3.375 1.65625 -3.28125 C 1.65625 -3.195312 1.703125 -3.117188 1.796875 -3.046875 C 1.890625 -2.984375 2.007812 -2.921875 2.15625 -2.859375 C 2.300781 -2.804688 2.457031 -2.742188 2.625 -2.671875 C 2.757812 -2.609375 2.890625 -2.539062 3.015625 -2.46875 C 3.148438 -2.394531 3.269531 -2.304688 3.375 -2.203125 C 3.476562 -2.097656 3.5625 -1.972656 3.625 -1.828125 C 3.6875 -1.691406 3.71875 -1.53125 3.71875 -1.34375 C 3.71875 -1.0625 3.664062 -0.828125 3.5625 -0.640625 C 3.457031 -0.460938 3.316406 -0.316406 3.140625 -0.203125 C 2.972656 -0.0976562 2.78125 -0.0234375 2.5625 0.015625 C 2.351562 0.0664062 2.140625 0.09375 1.921875 0.09375 Z M 1.921875 0.09375 "/></g></g></g><g fill="#ffffff" fill-opacity="1"><g transform="translate(44.155176, 17.251048)"><g><path d="M 1.921875 0.09375 C 1.710938 0.09375 1.492188 0.078125 1.265625 0.046875 C 1.046875 0.015625 0.804688 -0.03125 0.546875 -0.09375 C 0.492188 -0.101562 0.457031 -0.128906 0.4375 -0.171875 C 0.414062 -0.210938 0.414062 -0.253906 0.4375 -0.296875 L 0.671875 -0.984375 C 0.703125 -1.078125 0.769531 -1.109375 0.875 -1.078125 C 1.0625 -1.023438 1.25 -0.976562 1.4375 -0.9375 C 1.625 -0.90625 1.789062 -0.890625 1.9375 -0.890625 C 2.082031 -0.890625 2.203125 -0.910156 2.296875 -0.953125 C 2.398438 -1.003906 2.453125 -1.09375 2.453125 -1.21875 C 2.453125 -1.28125 2.414062 -1.335938 2.34375 -1.390625 C 2.28125 -1.441406 2.195312 -1.488281 2.09375 -1.53125 C 1.988281 -1.582031 1.867188 -1.632812 1.734375 -1.6875 C 1.609375 -1.75 1.476562 -1.8125 1.34375 -1.875 C 1.175781 -1.96875 1.019531 -2.066406 0.875 -2.171875 C 0.738281 -2.285156 0.625 -2.414062 0.53125 -2.5625 C 0.4375 -2.71875 0.390625 -2.898438 0.390625 -3.109375 C 0.390625 -3.367188 0.4375 -3.585938 0.53125 -3.765625 C 0.625 -3.953125 0.75 -4.097656 0.90625 -4.203125 C 1.070312 -4.316406 1.253906 -4.398438 1.453125 -4.453125 C 1.648438 -4.515625 1.859375 -4.546875 2.078125 -4.546875 C 2.253906 -4.546875 2.453125 -4.523438 2.671875 -4.484375 C 2.898438 -4.453125 3.125 -4.398438 3.34375 -4.328125 C 3.382812 -4.316406 3.414062 -4.296875 3.4375 -4.265625 C 3.457031 -4.234375 3.457031 -4.191406 3.4375 -4.140625 L 3.234375 -3.4375 C 3.222656 -3.382812 3.195312 -3.347656 3.15625 -3.328125 C 3.125 -3.304688 3.082031 -3.304688 3.03125 -3.328125 C 2.851562 -3.390625 2.679688 -3.4375 2.515625 -3.46875 C 2.347656 -3.507812 2.195312 -3.53125 2.0625 -3.53125 C 1.9375 -3.53125 1.835938 -3.507812 1.765625 -3.46875 C 1.691406 -3.4375 1.65625 -3.375 1.65625 -3.28125 C 1.65625 -3.195312 1.703125 -3.117188 1.796875 -3.046875 C 1.890625 -2.984375 2.007812 -2.921875 2.15625 -2.859375 C 2.300781 -2.804688 2.457031 -2.742188 2.625 -2.671875 C 2.757812 -2.609375 2.890625 -2.539062 3.015625 -2.46875 C 3.148438 -2.394531 3.269531 -2.304688 3.375 -2.203125 C 3.476562 -2.097656 3.5625 -1.972656 3.625 -1.828125 C 3.6875 -1.691406 3.71875 -1.53125 3.71875 -1.34375 C 3.71875 -1.0625 3.664062 -0.828125 3.5625 -0.640625 C 3.457031 -0.460938 3.316406 -0.316406 3.140625 -0.203125 C 2.972656 -0.0976562 2.78125 -0.0234375 2.5625 0.015625 C 2.351562 0.0664062 2.140625 0.09375 1.921875 0.09375 Z M 1.921875 0.09375 "/></g></g></g><g fill="#ffffff" fill-opacity="1"><g transform="translate(49.718574, 17.251048)"><g><path d="M 2.765625 0.09375 C 2.421875 0.09375 2.097656 0.0351562 1.796875 -0.078125 C 1.503906 -0.191406 1.25 -0.347656 1.03125 -0.546875 C 0.820312 -0.753906 0.65625 -1 0.53125 -1.28125 C 0.414062 -1.570312 0.359375 -1.882812 0.359375 -2.21875 C 0.359375 -2.5625 0.414062 -2.875 0.53125 -3.15625 C 0.65625 -3.4375 0.820312 -3.679688 1.03125 -3.890625 C 1.25 -4.097656 1.503906 -4.257812 1.796875 -4.375 C 2.097656 -4.488281 2.421875 -4.546875 2.765625 -4.546875 C 3.117188 -4.546875 3.441406 -4.488281 3.734375 -4.375 C 4.023438 -4.257812 4.28125 -4.097656 4.5 -3.890625 C 4.71875 -3.679688 4.882812 -3.4375 5 -3.15625 C 5.125 -2.875 5.1875 -2.5625 5.1875 -2.21875 C 5.1875 -1.882812 5.125 -1.570312 5 -1.28125 C 4.882812 -1 4.71875 -0.753906 4.5 -0.546875 C 4.28125 -0.347656 4.023438 -0.191406 3.734375 -0.078125 C 3.441406 0.0351562 3.117188 0.09375 2.765625 0.09375 Z M 2.765625 -1.015625 C 2.992188 -1.015625 3.195312 -1.066406 3.375 -1.171875 C 3.550781 -1.273438 3.6875 -1.414062 3.78125 -1.59375 C 3.875 -1.78125 3.921875 -1.988281 3.921875 -2.21875 C 3.921875 -2.445312 3.875 -2.648438 3.78125 -2.828125 C 3.6875 -3.015625 3.550781 -3.160156 3.375 -3.265625 C 3.195312 -3.378906 2.992188 -3.4375 2.765625 -3.4375 C 2.535156 -3.4375 2.332031 -3.378906 2.15625 -3.265625 C 1.988281 -3.160156 1.859375 -3.015625 1.765625 -2.828125 C 1.671875 -2.648438 1.625 -2.445312 1.625 -2.21875 C 1.625 -1.988281 1.671875 -1.78125 1.765625 -1.59375 C 1.859375 -1.414062 1.988281 -1.273438 2.15625 -1.171875 C 2.332031 -1.066406 2.535156 -1.015625 2.765625 -1.015625 Z M 2.765625 -1.015625 "/></g></g></g><g fill="#ffffff" fill-opacity="1"><g transform="translate(56.748253, 17.251048)"><g><path d="M 1.671875 0 L 0.71875 0 C 0.613281 0 0.5625 -0.0546875 0.5625 -0.171875 L 0.546875 -4.28125 C 0.546875 -4.394531 0.601562 -4.453125 0.71875 -4.453125 L 1.328125 -4.453125 C 1.421875 -4.453125 1.484375 -4.40625 1.515625 -4.3125 L 1.65625 -3.859375 C 1.820312 -4.109375 2.015625 -4.285156 2.234375 -4.390625 C 2.453125 -4.492188 2.671875 -4.546875 2.890625 -4.546875 C 3.015625 -4.546875 3.15625 -4.519531 3.3125 -4.46875 C 3.351562 -4.457031 3.378906 -4.429688 3.390625 -4.390625 C 3.410156 -4.359375 3.414062 -4.320312 3.40625 -4.28125 L 3.203125 -3.453125 C 3.179688 -3.359375 3.113281 -3.320312 3 -3.34375 C 2.925781 -3.363281 2.851562 -3.375 2.78125 -3.375 C 2.707031 -3.382812 2.648438 -3.390625 2.609375 -3.390625 C 2.347656 -3.390625 2.15625 -3.304688 2.03125 -3.140625 C 1.90625 -2.984375 1.84375 -2.742188 1.84375 -2.421875 L 1.84375 -0.171875 C 1.84375 -0.0546875 1.785156 0 1.671875 0 Z M 1.671875 0 "/></g></g></g><g fill="#ffffff" fill-opacity="1"><g transform="translate(61.834912, 17.251048)"><g><path d="M 2.25 -4.546875 C 2.519531 -4.546875 2.773438 -4.515625 3.015625 -4.453125 C 3.265625 -4.390625 3.476562 -4.289062 3.65625 -4.15625 C 3.84375 -4.03125 3.988281 -3.859375 4.09375 -3.640625 C 4.195312 -3.429688 4.25 -3.171875 4.25 -2.859375 L 4.25 -0.171875 C 4.25 -0.0546875 4.195312 0 4.09375 0 L 3.46875 0 C 3.375 0 3.316406 -0.046875 3.296875 -0.140625 L 3.171875 -0.515625 C 3.054688 -0.359375 2.925781 -0.234375 2.78125 -0.140625 C 2.644531 -0.0546875 2.5 0 2.34375 0.03125 C 2.1875 0.0703125 2.03125 0.09375 1.875 0.09375 C 1.6875 0.09375 1.5 0.0625 1.3125 0 C 1.132812 -0.0507812 0.972656 -0.132812 0.828125 -0.25 C 0.679688 -0.363281 0.566406 -0.507812 0.484375 -0.6875 C 0.398438 -0.863281 0.359375 -1.066406 0.359375 -1.296875 C 0.359375 -1.535156 0.40625 -1.742188 0.5 -1.921875 C 0.59375 -2.097656 0.71875 -2.242188 0.875 -2.359375 C 1.03125 -2.484375 1.210938 -2.570312 1.421875 -2.625 C 1.640625 -2.6875 1.867188 -2.71875 2.109375 -2.71875 C 2.242188 -2.71875 2.382812 -2.707031 2.53125 -2.6875 C 2.675781 -2.664062 2.820312 -2.632812 2.96875 -2.59375 L 2.96875 -2.8125 C 2.96875 -2.988281 2.929688 -3.125 2.859375 -3.21875 C 2.796875 -3.320312 2.703125 -3.394531 2.578125 -3.4375 C 2.453125 -3.488281 2.304688 -3.515625 2.140625 -3.515625 C 1.972656 -3.515625 1.796875 -3.492188 1.609375 -3.453125 C 1.421875 -3.410156 1.234375 -3.351562 1.046875 -3.28125 C 0.992188 -3.257812 0.945312 -3.253906 0.90625 -3.265625 C 0.875 -3.285156 0.847656 -3.320312 0.828125 -3.375 L 0.609375 -4.078125 C 0.578125 -4.179688 0.613281 -4.25 0.71875 -4.28125 C 0.957031 -4.363281 1.207031 -4.425781 1.46875 -4.46875 C 1.738281 -4.519531 2 -4.546875 2.25 -4.546875 Z M 2.234375 -0.796875 C 2.304688 -0.796875 2.382812 -0.804688 2.46875 -0.828125 C 2.5625 -0.859375 2.644531 -0.90625 2.71875 -0.96875 C 2.789062 -1.03125 2.847656 -1.109375 2.890625 -1.203125 C 2.941406 -1.304688 2.96875 -1.4375 2.96875 -1.59375 L 2.96875 -1.796875 C 2.875 -1.816406 2.78125 -1.832031 2.6875 -1.84375 C 2.601562 -1.863281 2.515625 -1.875 2.421875 -1.875 C 2.285156 -1.875 2.15625 -1.851562 2.03125 -1.8125 C 1.914062 -1.78125 1.820312 -1.722656 1.75 -1.640625 C 1.675781 -1.554688 1.640625 -1.445312 1.640625 -1.3125 C 1.640625 -1.195312 1.664062 -1.097656 1.71875 -1.015625 C 1.78125 -0.941406 1.851562 -0.882812 1.9375 -0.84375 C 2.03125 -0.8125 2.128906 -0.796875 2.234375 -0.796875 Z M 2.234375 -0.796875 "/></g></g></g><g clip-path="url(#c36ba9036a)"><path fill="#ffffff" d="M 17.519531 5.5625 C 22.464844 5.5625 26.46875 9.570312 26.46875 14.515625 C 26.46875 15.089844 26.414062 15.65625 26.3125 16.203125 L 12.789062 16.203125 C 13.480469 18.144531 15.335938 19.535156 17.519531 19.535156 C 18.972656 19.535156 20.285156 18.917969 21.203125 17.925781 L 26.488281 17.925781 C 26.699219 17.457031 27.167969 17.128906 27.714844 17.128906 C 28.457031 17.128906 29.054688 17.730469 29.054688 18.46875 C 29.054688 19.207031 28.457031 19.804688 27.714844 19.804688 C 27.167969 19.804688 26.699219 19.480469 26.488281 19.007812 L 23.140625 19.007812 C 23.03125 18.710938 22.742188 18.496094 22.40625 18.496094 C 21.96875 18.496094 21.617188 18.847656 21.617188 19.285156 C 21.617188 19.71875 21.96875 20.074219 22.40625 20.074219 C 22.742188 20.074219 23.03125 19.859375 23.140625 19.558594 L 24.914062 19.558594 C 23.300781 21.917969 20.589844 23.46875 17.519531 23.46875 C 12.574219 23.46875 8.566406 19.460938 8.566406 14.515625 C 8.566406 14.015625 8.609375 13.523438 8.6875 13.046875 L 15.636719 13.046875 C 15.976562 13.75 16.691406 14.230469 17.519531 14.230469 C 18.671875 14.230469 19.605469 13.296875 19.605469 12.148438 C 19.605469 10.996094 18.671875 10.066406 17.519531 10.066406 C 16.691406 10.066406 15.976562 10.546875 15.636719 11.25 L 8.3125 11.25 C 8.0625 11.8125 7.496094 12.207031 6.839844 12.207031 C 5.949219 12.207031 5.226562 11.488281 5.226562 10.59375 C 5.226562 9.707031 5.949219 8.984375 6.839844 8.984375 C 7.496094 8.984375 8.0625 9.378906 8.3125 9.945312 L 11.707031 9.945312 C 11.832031 10.398438 12.246094 10.734375 12.742188 10.734375 C 13.332031 10.734375 13.8125 10.253906 13.8125 9.660156 C 13.8125 9.070312 13.332031 8.589844 12.742188 8.589844 C 12.246094 8.589844 11.832031 8.921875 11.707031 9.375 L 10.191406 9.375 C 11.808594 7.070312 14.488281 5.5625 17.519531 5.5625 Z M 17.519531 5.5625 " fill-opacity="1" fill-rule="evenodd"/></g></svg>